#!OML:ASF H:\Not Pregnant\Project 1\Capture day 1\Session 1\non-pregnant.ASF
:FULLY-SPECIFIED
:DEGREES
607
root 12.0296 16.0907 4.67166 17.1605 48.0825 0.148405
lowerback -4.01905 5.41086 4.67027
upperback -7.43923 7.37022 -0.186884
thorax -4.89903 3.50981 -2.77201
lowerneck 46.1454 -23.2654 -22.4377
upperneck -35.1509 -31.857 50.4959
head -3.15907 -22.3921 27.7132
rclavicle -8.77262e-014 -3.02153e-014
rhumerus -36.2485 19.8506 -95.604
rradius 92.0241
rwrist 10.8656
rhand -41.3733 -0.743709
rfingers 7.12502
rthumb -14.2913 -30.2319
lclavicle -8.77262e-014 -3.02153e-014
lhumerus -66.9817 22.0162 36.1885
lradius 58.3006
lwrist 60.0573
lhand -23.0622 -5.78285
lfingers 7.12502
lthumb 3.38305 24.1701
rfemur -11.7456 -13.4476 24.2739
rtibia 45.3417
rfoot 2.37569 -17.6243
rtoes -32.8684
lfemur -36.1391 -5.37363 -17.2367
ltibia 37.7221
lfoot -16.0941 -21.2236
ltoes -9.36548
608
root 12.0924 16.1205 4.73247 17.1936 48.925 0.364165
lowerback -4.13957 5.36293 4.50373
upperback -7.37664 7.30289 -0.0854085
thorax -4.80157 3.49187 -2.56255
lowerneck 46.3142 -23.5943 -22.1258
upperneck -35.5326 -31.9775 50.6641
head -3.26573 -22.5202 27.826
rclavicle -4.0813e-014 -1.98785e-014
rhumerus -36.0892 20.796 -96.5608
rradius 91.6087
rwrist 10.8812
rhand -41.2068 -0.417008
rfingers 7.12502
rthumb -14.1309 -29.9165
lclavicle -4.0813e-014 -1.98785e-014
lhumerus -67.0952 21.9025 35.5344
lradius 58.7903
lwrist 60.2499
lhand -23.2881 -5.86354
lfingers 7.12502
lthumb 3.16491 24.0927
rfemur -12.2904 -12.9348 24.0169
rtibia 46.7303
rfoot 4.14719 -16.2584
rtoes -31.3444
lfemur -35.3997 -5.53272 -17.437
ltibia 37.002
lfoot -15.5543 -21.9661
ltoes -7.66975
609
root 12.1532 16.1504 4.7926 17.2353 49.6911 0.573437
lowerback -4.22831 5.32948 4.34846
upperback -7.32716 7.25715 0.00312858
thorax -4.73118 3.48258 -2.37649
lowerneck 46.4594 -23.9172 -21.8155
upperneck -35.8949 -32.0906 50.8252
head -3.36893 -22.642 27.931
rclavicle -1.083e-013 -2.94201e-014
rhumerus -35.8972 21.7691 -97.5127
rradius 91.1978
rwrist 10.9325
rhand -41.067 -0.0926615
rfingers 7.12502
rthumb -13.9962 -29.6015
lclavicle -1.083e-013 -2.94201e-014
lhumerus -67.2071 21.7621 34.8885
lradius 59.2365
lwrist 60.3946
lhand -23.5421 -5.91525
lfingers 7.12502
lthumb 2.91955 24.0445
rfemur -12.8667 -12.3403 23.7355
rtibia 48.1025
rfoot 5.84959 -14.6476
rtoes -29.6679
lfemur -34.6508 -5.65728 -17.6291
ltibia 36.2639
lfoot -15.0294 -22.593
ltoes -6.11467
610
root 12.2116 16.1801 4.85252 17.2798 50.3889 0.772564
lowerback -4.2851 5.29942 4.18786
upperback -7.29119 7.21876 0.0912478
thorax -4.69298 3.47598 -2.19227
lowerneck 46.5878 -24.2229 -21.517
upperneck -36.2356 -32.1916 50.9746
head -3.47005 -22.7534 28.0318
rclavicle 1.3003e-013 1.90833e-014
rhumerus -35.6866 22.8113 -98.4651
rradius 90.8033
rwrist 10.9956
rhand -40.9294 0.253086
rfingers 7.12502
rthumb -13.8636 -29.2648
lclavicle 1.3003e-013 1.90833e-014
lhumerus -67.3457 21.61 34.2343
lradius 59.6532
lwrist 60.4918
lhand -23.8143 -5.9352
lfingers 7.12502
lthumb 2.65673 24.028
rfemur -13.4622 -11.6792 23.4391
rtibia 49.4472
rfoot 7.3901 -12.7843
rtoes -28.0028
lfemur -33.8952 -5.72729 -17.8119
ltibia 35.5123
lfoot -14.5134 -23.1526
ltoes -4.6286
611
root 12.2678 16.2093 4.91247 17.3382 51.0261 0.972947
lowerback -4.32762 5.26801 4.00386
upperback -7.26124 7.18016 0.182344
thorax -4.672 3.46988 -1.99437
lowerneck 46.6989 -24.5151 -21.2245
upperneck -36.5625 -32.2802 51.1142
head -3.57233 -22.855 28.131
rclavicle -2.2413e-014 -2.54444e-014
rhumerus -35.455 23.9327 -99.4125
rradius 90.4401
rwrist 11.0398
rhand -40.7971 0.578765
rfingers 7.12502
rthumb -13.7361 -28.9478
lclavicle -2.2413e-014 -2.54444e-014
lhumerus -67.5155 21.4717 33.5659
lradius 60.0528
lwrist 60.5469
lhand -24.0969 -5.93223
lfingers 7.12502
lthumb 2.38375 24.0342
rfemur -14.0708 -10.9707 23.1233
rtibia 50.7545
rfoot 8.58499 -10.6868
rtoes -26.6589
lfemur -33.1407 -5.74198 -17.9924
ltibia 34.7517
lfoot -13.9843 -23.6772
ltoes -3.12149
612
root 12.3215 16.2378 4.97277 17.4121 51.6235 1.17434
lowerback -4.36747 5.22453 3.78902
upperback -7.23287 7.12655 0.284346
thorax -4.65963 3.4578 -1.76941
lowerneck 46.7938 -24.7889 -20.9386
upperneck -36.8774 -32.351 51.2428
head -3.6791 -22.9435 28.2334
rclavicle 5.56597e-014 7.95139e-016
rhumerus -35.2064 25.1464 -100.358
rradius 90.1212
rwrist 11.0451
rhand -40.6525 0.868358
rfingers 7.12502
rthumb -13.5967 -28.6676
lclavicle 5.56597e-014 7.95139e-016
lhumerus -67.729 21.3604 32.878
lradius 60.4478
lwrist 60.571
lhand -24.3883 -5.91527
lfingers 7.12502
lthumb 2.10238 24.0541
rfemur -14.6886 -10.2325 22.7946
rtibia 52.0107
rfoot 9.29363 -8.40646
rtoes -25.7793
lfemur -32.4 -5.72037 -18.1633
ltibia 33.9941
lfoot -13.4436 -24.1776
ltoes -1.60883
613
root 12.373 16.2649 5.03325 17.505 52.1854 1.38816
lowerback -4.40455 5.1746 3.54196
upperback -7.19741 7.06488 0.396163
thorax -4.64611 3.44344 -1.51702
lowerneck 46.8606 -25.0549 -20.6621
upperneck -37.1917 -32.4163 51.372
head -3.78169 -23.0275 28.333
rclavicle 5.20319e-014 2.06736e-014
rhumerus -34.9341 26.4408 -101.278
rradius 89.8561
rwrist 10.9953
rhand -40.4781 1.10267
rfingers 7.12502
rthumb -13.4286 -28.4445
lclavicle 5.20319e-014 2.06736e-014
lhumerus -67.9634 21.2794 32.1956
lradius 60.8331
lwrist 60.5772
lhand -24.6769 -5.90423
lfingers 7.12502
lthumb 1.82361 24.0677
rfemur -15.3066 -9.45958 22.4396
rtibia 53.1991
rfoot 9.40229 -6.03878
rtoes -25.4255
lfemur -31.6754 -5.68283 -18.3303
ltibia 33.2537
lfoot -12.9106 -24.6352
ltoes -0.166797
614
root 12.422 16.2895 5.0947 17.6057 52.7127 1.59848
lowerback -4.45009 5.12121 3.25304
upperback -7.15356 6.99902 0.522834
thorax -4.62515 3.42952 -1.22553
lowerneck 46.9092 -25.3156 -20.3881
upperneck -37.5099 -32.4743 51.5034
head -3.88503 -23.1073 28.4367
rclavicle -2.55438e-014 -1.11319e-014
rhumerus -34.6426 27.8155 -102.173
rradius 89.65
rwrist 10.8623
rhand -40.3257 1.22926
rfingers 7.12502
rthumb -13.2818 -28.3275
lclavicle -2.55438e-014 -1.11319e-014
lhumerus -68.208 21.2314 31.5272
lradius 61.2084
lwrist 60.5739
lhand -24.9603 -5.90657
lfingers 7.12502
lthumb 1.54989 24.0675
rfemur -15.9231 -8.64204 22.077
rtibia 54.2968
rfoot 8.8925 -3.64808
rtoes -25.7414
lfemur -30.982 -5.62703 -18.4786
ltibia 32.5542
lfoot -12.3992 -25.0492
ltoes 1.17754
615
root 12.4694 16.3115 5.15611 17.7081 53.2268 1.80589
lowerback -4.49307 5.05944 2.95606
upperback -7.1015 6.92234 0.659682
thorax -4.59885 3.41074 -0.919172
lowerneck 46.9419 -25.5663 -20.1295
upperneck -37.8305 -32.5292 51.6405
head -3.98261 -23.1853 28.5439
rclavicle -1.21805e-013 -4.21423e-014
rhumerus -34.3383 29.2701 -103.044
rradius 89.4971
rwrist 10.6334
rhand -40.1953 1.2974
rfingers 7.12502
rthumb -13.1561 -28.2675
lclavicle -1.21805e-013 -4.21423e-014
lhumerus -68.4675 21.2259 30.8624
lradius 61.5637
lwrist 60.5555
lhand -25.2081 -5.90459
lfingers 7.12502
lthumb 1.31058 24.0711
rfemur -16.5305 -7.79134 21.6993
rtibia 55.2857
rfoot 7.79328 -1.36775
rtoes -26.4028
lfemur -30.3233 -5.56508 -18.6141
ltibia 31.9191
lfoot -11.9306 -25.4248
ltoes 2.41699
616
root 12.515 16.3299 5.21731 17.8016 53.7342 2.00282
lowerback -4.52525 4.99583 2.6607
upperback -7.04171 6.84361 0.801703
thorax -4.57017 3.39074 -0.608944
lowerneck 46.9576 -25.8176 -19.8756
upperneck -38.154 -32.586 51.7852
head -4.07418 -23.2655 28.6503
rclavicle -2.7805e-014 -2.70347e-014
rhumerus -34.0216 30.7791 -103.884
rradius 89.3904
rwrist 10.312
rhand -40.1387 1.29447
rfingers 7.12502
rthumb -13.1015 -28.274
lclavicle -2.7805e-014 -2.70347e-014
lhumerus -68.7106 21.2481 30.2195
lradius 61.8911
lwrist 60.544
lhand -25.4348 -5.9049
lfingers 7.12502
lthumb 1.0916 24.0721
rfemur -17.1246 -6.91953 21.316
rtibia 56.1547
rfoot 6.2462 0.738699
rtoes -27.325
lfemur -29.7088 -5.49089 -18.7345
ltibia 31.3717
lfoot -11.5267 -25.7648
ltoes 3.54054
